<svg width="19" height="20" viewBox="0 0 19 20" fill="none" xmlns="http://www.w3.org/2000/svg">
<path d="M9.95141 20C11.2566 20 12.3244 19.0769 12.3244 17.9487H7.57839C7.57839 18.4928 7.8284 19.0145 8.27343 19.3992C8.71846 19.7839 9.32205 20 9.95141 20ZM17.0705 13.8462V8.71795C17.0705 5.56923 15.1246 2.93333 11.7312 2.2359V1.53846C11.7312 0.68718 10.9362 0 9.95141 0C8.96661 0 8.17164 0.68718 8.17164 1.53846V2.2359C4.76635 2.93333 2.83233 5.55897 2.83233 8.71795V13.8462L1.30173 15.1692C0.554222 15.8154 1.07629 16.9231 2.13229 16.9231H17.7587C18.8147 16.9231 19.3486 15.8154 18.6011 15.1692L17.0705 13.8462Z" fill="#B2B2B2"/>
</svg>
