<svg width="25" height="24" viewBox="0 0 25 24" fill="none" xmlns="http://www.w3.org/2000/svg">
<path d="M12.3875 12V4.5C12.3875 4.35082 12.4467 4.20774 12.5522 4.10225C12.6577 3.99676 12.8008 3.9375 12.95 3.9375C13.0991 3.9375 13.2422 3.99676 13.3477 4.10225C13.4532 4.20774 13.5125 4.35082 13.5125 4.5V12C13.5125 12.1492 13.4532 12.2923 13.3477 12.3977C13.2422 12.5032 13.0991 12.5625 12.95 12.5625C12.8008 12.5625 12.6577 12.5032 12.5522 12.3977C12.4467 12.2923 12.3875 12.1492 12.3875 12ZM17.7575 4.78125C17.6334 4.71373 17.4886 4.69532 17.3516 4.72969C17.2146 4.76405 17.0956 4.84867 17.0182 4.96674C16.9407 5.08481 16.9105 5.22769 16.9335 5.36701C16.9565 5.50632 17.0311 5.63188 17.1425 5.71875C19.3634 7.16906 20.6375 9.4575 20.6375 12C20.6375 14.0389 19.8275 15.9942 18.3858 17.4359C16.9441 18.8776 14.9888 19.6875 12.95 19.6875C10.9111 19.6875 8.95575 18.8776 7.51407 17.4359C6.07238 15.9942 5.26245 14.0389 5.26245 12C5.26245 9.4575 6.53651 7.16906 8.75745 5.71875C8.86878 5.63188 8.94336 5.50632 8.96639 5.36701C8.98942 5.22769 8.95921 5.08481 8.88175 4.96674C8.8043 4.84867 8.68527 4.76405 8.54831 4.72969C8.41135 4.69532 8.26647 4.71373 8.14245 4.78125C5.59714 6.43875 4.13745 9.07031 4.13745 12C4.13745 14.3372 5.06591 16.5787 6.71857 18.2314C8.37124 19.884 10.6127 20.8125 12.95 20.8125C15.2872 20.8125 17.5287 19.884 19.1813 18.2314C20.834 16.5787 21.7625 14.3372 21.7625 12C21.7625 9.07031 20.3028 6.43875 17.7575 4.78125Z" fill="#FF4D4F"/>
</svg>
