<svg width="18" height="22" viewBox="0 0 18 22" fill="none" xmlns="http://www.w3.org/2000/svg">
<path d="M17.6709 4.57906L13.9209 0.829063C13.8164 0.724624 13.6923 0.641808 13.5557 0.585347C13.4191 0.528885 13.2728 0.499884 13.125 0.5H5.625C5.12772 0.5 4.65081 0.697544 4.29917 1.04918C3.94754 1.40081 3.75 1.87772 3.75 2.375V4.25H2.25C1.75272 4.25 1.27581 4.44754 0.924175 4.79918C0.572544 5.15081 0.375 5.62772 0.375 6.125V19.25C0.375 19.7473 0.572544 20.2242 0.924175 20.5758C1.27581 20.9275 1.75272 21.125 2.25 21.125H12.375C12.8723 21.125 13.3492 20.9275 13.7008 20.5758C14.0525 20.2242 14.25 19.7473 14.25 19.25V17.375H16.125C16.6223 17.375 17.0992 17.1775 17.4508 16.8258C17.8025 16.4742 18 15.9973 18 15.5V5.375C18.0001 5.22722 17.9711 5.08086 17.9147 4.94429C17.8582 4.80772 17.7754 4.68362 17.6709 4.57906ZM12 18.875H2.625V6.5H8.90625L12 9.59375V18.875ZM15.75 15.125H14.25V9.125C14.2501 8.97722 14.2211 8.83086 14.1647 8.69429C14.1082 8.55772 14.0254 8.43362 13.9209 8.32906L10.1709 4.57906C10.0664 4.47462 9.94228 4.39181 9.80571 4.33535C9.66914 4.27889 9.52278 4.24988 9.375 4.25H6V2.75H12.6562L15.75 5.84375V15.125ZM10.5 12.5C10.5 12.7984 10.3815 13.0845 10.1705 13.2955C9.95952 13.5065 9.67337 13.625 9.375 13.625H5.25C4.95163 13.625 4.66548 13.5065 4.4545 13.2955C4.24353 13.0845 4.125 12.7984 4.125 12.5C4.125 12.2016 4.24353 11.9155 4.4545 11.7045C4.66548 11.4935 4.95163 11.375 5.25 11.375H9.375C9.67337 11.375 9.95952 11.4935 10.1705 11.7045C10.3815 11.9155 10.5 12.2016 10.5 12.5ZM10.5 16.25C10.5 16.5484 10.3815 16.8345 10.1705 17.0455C9.95952 17.2565 9.67337 17.375 9.375 17.375H5.25C4.95163 17.375 4.66548 17.2565 4.4545 17.0455C4.24353 16.8345 4.125 16.5484 4.125 16.25C4.125 15.9516 4.24353 15.6655 4.4545 15.4545C4.66548 15.2435 4.95163 15.125 5.25 15.125H9.375C9.67337 15.125 9.95952 15.2435 10.1705 15.4545C10.3815 15.6655 10.5 15.9516 10.5 16.25Z" fill="white"/>
</svg>
